<svg class="w-full contrast-200 dark:hidden" viewBox="0 0 1280 832" fill="none" xmlns="http://www.w3.org/2000/svg">
    <g clip-path="url(#clip0_470_2)">
        <g filter="url(#filter0_f_470_2)">
            <path d="M1181.25 59.2119C1181.25 133.186 1181.25 634.874 981.803 432.113C817.643 265.221 678.138 99.8525 444.05 101.947C210.139 104.04 -53 113.271 -53 59.2119C-53 -33.1367 223.295 -108 564.123 -108C904.95 -108 1181.25 -33.1367 1181.25 59.2119Z" fill="url(#paint0_linear_470_2)" />
        </g>
        <g filter="url(#filter1_f_470_2)">
            <path d="M161.162 -168L1522.09 -83.9563L1096.42 51.1577L860.978 369.229L602.029 577.059L800.282 124.717L161.162 -168Z" fill="url(#paint1_linear_470_2)" />
        </g>
    </g>
    <defs>
        <filter id="filter0_f_470_2" x="-453" y="-508" width="2034.25" height="1388.03" filterUnits="userSpaceOnUse" color-interpolation-filters="sRGB">
            <feFlood flood-opacity="0" result="BackgroundImageFix" />
            <feBlend mode="normal" in="SourceGraphic" in2="BackgroundImageFix" result="shape" />
            <feGaussianBlur stdDeviation="200" result="effect1_foregroundBlur_470_2" />
        </filter>
        <filter id="filter1_f_470_2" x="-238.838" y="-568" width="2160.92" height="1545.06" filterUnits="userSpaceOnUse" color-interpolation-filters="sRGB">
            <feFlood flood-opacity="0" result="BackgroundImageFix" />
            <feBlend mode="normal" in="SourceGraphic" in2="BackgroundImageFix" result="shape" />
            <feGaussianBlur stdDeviation="200" result="effect1_foregroundBlur_470_2" />
        </filter>
        <linearGradient id="paint0_linear_470_2" x1="1087" y1="202.5" x2="383" y2="275" gradientUnits="userSpaceOnUse">
            <stop offset="0.0827338" stop-color="#12CDD9" />
            <stop offset="1" stop-color="#E0F07A" />
        </linearGradient>
        <linearGradient id="paint1_linear_470_2" x1="787.41" y1="-13.4026" x2="894.07" y2="156.48" gradientUnits="userSpaceOnUse">
            <stop stop-color="#9E00FF" />
            <stop offset="1" stop-color="white" />
        </linearGradient>
        <clipPath id="clip0_470_2">
            <rect width="1280" height="832" fill="white" />
        </clipPath>
    </defs>
</svg>